<?xml version="1.0" encoding="utf-8"?>
<svg version="1.1" viewBox="98 161 630 630" width="1068pt" height="944.0pt" xmlns="http://www.w3.org/2000/svg">
  <path d="M 400.142 165.133 C 445.802 162.763 491.522 169.463 533.662 187.533 C 576.512 205.783 613.222 234.593 643.842 269.443 C 661.762 289.923 677.212 312.583 689.162 337.063 C 698.772 356.593 706.042 377.203 711.092 398.363 C 707.422 398.373 703.762 398.383 700.092 398.363 C 690.572 365.333 673.912 334.633 651.942 308.233 C 629.022 280.753 601.312 257.183 569.342 240.883 C 537.362 224.483 501.982 216.193 466.142 214.973 C 425.842 213.653 385.712 220.673 349.222 238.163 C 310.592 256.523 276.922 286.223 251.542 320.473 C 226.032 354.823 210.002 395.623 204.732 438.063 C 200.052 476.253 202.352 515.973 213.252 552.973 C 225.262 594.223 248.432 631.193 278.712 661.493 C 306.692 689.693 340.472 711.683 378.442 723.753 C 400.022 730.683 422.452 734.303 445.072 735.313 C 445.042 751.393 445.052 767.473 445.072 783.553 C 397.002 787.303 348.802 781.573 304.052 763.153 C 263.092 746.413 227.492 720.033 197.452 687.733 C 179.212 668.173 163.152 646.293 150.462 622.733 C 138.892 601.363 130.082 578.563 124.122 555.013 C 115.802 521.853 113.142 487.163 115.182 453.073 C 117.362 414.793 126.212 377.123 142.402 342.313 C 161.462 301.153 189.912 265.633 224.062 235.973 C 254.162 209.943 288.992 189.773 327.082 177.993 C 350.812 170.543 375.322 166.483 400.142 165.133 Z" style="fill: rgb(255, 255, 255);"/>
  <path d="M 447.142 291.373 C 462.142 290.083 477.402 291.283 492.192 293.943 C 528.632 300.713 562.462 319.413 587.942 346.273 C 602.202 361.443 614.402 379.123 622.452 398.373 C 618.892 398.413 615.332 398.403 611.772 398.413 C 603.442 384.493 593.422 371.723 581.242 360.963 C 556.592 338.683 524.462 324.863 491.302 322.503 C 483.492 322.163 475.512 322.193 467.702 322.503 C 450.852 323.673 434.172 327.893 418.692 334.603 C 388.772 347.523 363.592 370.223 347.262 398.393 C 330.352 398.393 313.452 398.443 296.552 398.363 C 309.442 368.243 331.302 341.793 358.102 322.993 C 384.202 304.603 415.272 293.483 447.142 291.373 Z" fill="#fd0000"/>
</svg>